<?xml version="1.0" standalone="no"?>
<!DOCTYPE svg PUBLIC "-//W3C//DTD SVG 20010904//EN"
 "http://www.w3.org/TR/2001/REC-SVG-20010904/DTD/svg10.dtd">
<svg version="1.0" xmlns="http://www.w3.org/2000/svg"
 width="626.000000pt" height="626.000000pt" viewBox="0 0 626.000000 626.000000"
 preserveAspectRatio="xMidYMid meet">

<g transform="translate(0.000000,626.000000) scale(0.100000,-0.100000)"
fill="#000000" stroke="none">
<path d="M1960 4304 c-268 -53 -435 -198 -495 -429 -31 -123 -15 -287 40 -395
45 -89 141 -160 216 -160 36 0 37 12 -14 -135 -31 -89 -73 -256 -92 -368 -5
-31 -10 -37 -23 -32 -9 4 -55 9 -102 12 -223 15 -404 -73 -475 -230 -13 -29
-32 -91 -41 -139 l-17 -88 -270 -2 c-239 -3 -271 -5 -280 -20 -8 -12 -7 -21 2
-32 12 -14 49 -16 281 -16 l268 0 6 -44 c9 -61 55 -128 102 -151 22 -10 66
-21 99 -23 46 -4 68 -11 95 -32 71 -54 166 -74 237 -49 24 8 44 6 89 -7 97
-28 189 -5 260 65 21 20 49 34 84 42 87 18 150 94 150 178 l0 21 1879 0 c2027
0 1919 -3 1891 49 -10 20 -18 21 -286 21 -238 0 -275 2 -271 15 4 8 11 62 17
120 21 191 -15 335 -101 408 -38 33 -96 57 -137 57 -12 0 -34 12 -49 26 -65
60 -159 86 -235 65 -37 -10 -54 -9 -111 6 l-69 19 -38 115 c-20 63 -41 121
-44 130 -6 13 2 17 42 23 97 13 180 92 225 214 29 80 35 253 12 341 -33 129
-116 250 -220 321 -84 57 -262 110 -370 110 -131 0 -251 -79 -311 -204 -19
-39 -34 -77 -34 -84 0 -9 -6 -12 -17 -7 -225 89 -428 125 -716 125 -258 0
-456 -30 -633 -96 -51 -19 -94 -34 -96 -34 -3 0 -10 19 -17 43 -30 100 -120
201 -209 232 -48 17 -177 28 -222 19z m203 -99 c29 -13 35 -20 25 -27 -9 -6
-6 -7 8 -3 45 12 130 -123 128 -205 -1 -31 1 -39 7 -25 7 19 8 19 8 -1 1 -12
8 -25 17 -28 21 -8 65 3 86 22 10 8 24 12 33 8 9 -3 14 -2 11 3 -3 5 5 12 18
15 13 3 32 9 42 13 13 5 15 3 10 -8 -5 -9 -3 -8 6 2 21 26 167 62 323 80 147
17 644 2 631 -20 -2 -3 13 -7 35 -7 41 -2 265 -75 311 -102 21 -12 32 -13 51
-5 19 9 26 22 31 62 4 29 11 49 16 46 5 -3 7 0 4 8 -6 17 30 80 40 70 4 -4 4
-1 1 8 -3 9 8 28 29 48 31 30 39 33 73 28 34 -5 36 -5 20 7 -17 13 -15 15 19
26 24 8 60 10 103 6 36 -4 74 -8 84 -9 9 -1 17 -5 17 -9 0 -4 14 -8 30 -8 17
0 30 -5 30 -11 0 -5 4 -7 10 -4 5 3 20 0 32 -7 22 -12 26 -13 46 -17 4 -1 0
-6 -8 -12 -13 -9 -12 -10 3 -5 33 11 73 -17 68 -48 -1 -5 5 -6 12 -3 19 7 82
-57 72 -74 -5 -8 -4 -10 3 -5 13 8 38 -27 47 -66 4 -16 12 -28 17 -28 6 0 8
-7 5 -15 -4 -8 -2 -17 2 -20 18 -10 33 -135 26 -203 -5 -46 -10 -61 -15 -47
-4 13 -7 3 -6 -28 1 -30 -4 -51 -12 -56 -8 -5 -14 -12 -14 -17 1 -5 -12 -30
-28 -55 -37 -60 -94 -85 -175 -76 -50 5 -57 3 -71 -18 -14 -21 -12 -28 17 -91
35 -76 79 -200 79 -221 0 -8 -4 -11 -10 -8 -5 3 -10 1 -10 -4 0 -6 8 -11 18
-11 10 0 2 -8 -18 -17 -19 -10 -46 -27 -59 -40 -14 -12 -28 -20 -32 -18 -4 3
-6 -3 -5 -12 1 -13 -10 -19 -47 -24 -106 -16 -158 -90 -173 -244 -5 -62 11
-231 31 -322 l5 -22 -427 -3 c-555 -3 -767 -3 -1287 0 l-428 2 4 25 c3 15 1
22 -5 18 -6 -4 -8 2 -5 15 4 12 2 22 -3 22 -5 0 -9 7 -9 16 0 23 -50 124 -61
124 -6 0 -8 10 -4 23 4 14 3 17 -2 9 -7 -9 -16 -5 -37 17 -15 16 -24 31 -19
33 4 3 2 3 -5 1 -12 -3 -78 40 -93 60 -3 5 -9 8 -13 8 -3 -1 -21 5 -39 13 -19
7 -43 17 -55 20 -12 4 -22 15 -22 24 0 15 -2 15 -10 2 -9 -13 -10 -13 -10 0 0
41 52 280 72 329 6 14 13 35 15 46 2 11 8 24 13 29 6 6 10 18 10 29 0 10 5 15
10 12 6 -3 10 2 10 13 0 30 22 85 29 73 4 -5 8 10 9 34 2 56 -12 65 -98 58
-54 -3 -71 -1 -99 17 -18 12 -31 24 -27 27 3 3 12 0 21 -7 9 -7 15 -8 15 -2 0
5 10 8 23 5 12 -3 19 -3 15 1 -3 4 -26 9 -50 11 -24 2 -46 4 -49 4 -3 1 -21
34 -40 74 -27 58 -34 87 -37 150 -3 50 0 83 7 90 6 6 11 20 10 32 -1 17 -2 17
-10 -5 -8 -23 -8 -23 -5 5 3 17 7 39 9 50 3 11 6 27 6 35 1 13 2 13 11 0 8
-11 9 -8 4 12 -10 45 82 172 171 234 37 26 152 72 208 84 64 14 177 6 220 -15z
m2539 -1260 c42 -17 50 -17 74 -4 34 18 127 18 149 -1 13 -10 13 -15 3 -22 -9
-5 -5 -7 12 -6 16 2 24 -2 22 -10 -1 -8 2 -11 8 -7 6 4 19 -4 29 -16 14 -18
27 -22 67 -21 42 1 45 -1 24 -9 -14 -6 -32 -8 -42 -6 -9 3 -22 -1 -28 -8 -8
-10 -1 -11 37 -4 27 5 54 11 62 14 34 13 124 -134 108 -177 -2 -7 -8 -1 -12
15 -8 29 -25 37 -25 12 0 -8 4 -15 9 -15 5 0 13 -9 16 -20 4 -11 11 -18 16
-14 6 4 9 -24 8 -75 -1 -45 -6 -78 -11 -75 -5 3 -6 -6 -2 -20 9 -36 -4 -113
-20 -119 -29 -11 -474 -19 -677 -12 l-216 7 -11 47 c-25 101 -34 188 -29 270
8 139 37 181 122 181 33 0 51 12 79 52 13 19 17 20 33 7 16 -13 17 -12 5 2
-14 19 -5 30 43 47 39 14 88 10 147 -13z m-3138 -236 c29 -8 36 -13 25 -20 -8
-5 -9 -9 -4 -9 6 0 16 5 22 11 7 7 22 7 49 -1 52 -15 197 -93 197 -105 -1 -15
18 -47 24 -41 3 3 0 12 -7 21 -20 24 -1 17 26 -10 14 -14 22 -30 18 -37 -4 -6
-3 -8 3 -5 17 10 30 -12 57 -97 41 -123 31 -246 -19 -246 -7 0 -15 -5 -17 -10
-2 -6 -27 -13 -55 -17 -45 -5 -57 -11 -78 -39 -49 -65 -123 -87 -209 -63 -29
8 -36 13 -25 20 18 12 -69 0 -93 -12 -23 -12 -41 -11 -33 1 3 6 -1 10 -10 10
-9 0 -13 -4 -10 -10 3 -5 -3 -10 -13 -10 -31 0 -84 26 -119 58 -28 26 -40 30
-107 34 -83 4 -108 18 -132 75 -20 48 -18 167 4 200 11 19 13 25 3 19 -11 -7
-13 -3 -7 20 25 100 115 226 138 192 6 -9 8 -8 6 7 -3 17 10 24 77 47 88 30
215 38 289 17z"/>
<path d="M4223 4213 c9 -2 23 -2 30 0 6 3 -1 5 -18 5 -16 0 -22 -2 -12 -5z"/>
<path d="M1968 4203 c6 -2 18 -2 25 0 6 3 1 5 -13 5 -14 0 -19 -2 -12 -5z"/>
<path d="M2100 4200 c8 -5 20 -10 25 -10 6 0 3 5 -5 10 -8 5 -19 10 -25 10 -5
0 -3 -5 5 -10z"/>
<path d="M4148 4203 c6 -2 18 -2 25 0 6 3 1 5 -13 5 -14 0 -19 -2 -12 -5z"/>
<path d="M4298 4203 c7 -3 16 -2 19 1 4 3 -2 6 -13 5 -11 0 -14 -3 -6 -6z"/>
<path d="M2150 4190 c0 -5 5 -10 11 -10 5 0 7 5 4 10 -3 6 -8 10 -11 10 -2 0
-4 -4 -4 -10z"/>
<path d="M4188 4183 c7 -3 16 -2 19 1 4 3 -2 6 -13 5 -11 0 -14 -3 -6 -6z"/>
<path d="M4065 4169 c-4 -6 -5 -12 -2 -15 2 -3 7 2 10 11 7 17 1 20 -8 4z"/>
<path d="M1810 4150 c-9 -6 -10 -10 -3 -10 6 0 15 5 18 10 8 12 4 12 -15 0z"/>
<path d="M4035 4140 c-3 -5 -1 -10 4 -10 6 0 11 5 11 10 0 6 -2 10 -4 10 -3 0
-8 -4 -11 -10z"/>
<path d="M4513 4116 c0 -8 6 -12 14 -9 7 3 13 9 13 14 0 5 -6 9 -13 9 -8 0
-14 -6 -14 -14z"/>
<path d="M2267 4080 c3 -11 9 -22 13 -25 5 -3 6 4 3 15 -3 11 -9 22 -13 25 -5
3 -6 -4 -3 -15z"/>
<path d="M2246 4055 c8 -37 14 -45 14 -19 0 10 -5 26 -10 34 -8 11 -9 7 -4
-15z"/>
<path d="M3983 4055 c-3 -9 -3 -18 -1 -21 3 -3 8 4 11 16 6 23 -1 27 -10 5z"/>
<path d="M4595 4050 c10 -11 20 -20 22 -20 2 0 -2 9 -9 20 -7 11 -17 20 -22
20 -5 0 -1 -9 9 -20z"/>
<path d="M1645 4040 c-16 -17 -16 -20 -3 -15 9 4 19 13 22 21 7 19 2 18 -19
-6z"/>
<path d="M3003 4043 c9 -2 23 -2 30 0 6 3 -1 5 -18 5 -16 0 -22 -2 -12 -5z"/>
<path d="M3280 4039 c0 -5 9 -9 20 -9 11 0 20 2 20 4 0 2 -9 6 -20 9 -11 3
-20 1 -20 -4z"/>
<path d="M3368 4033 c7 -3 16 -2 19 1 4 3 -2 6 -13 5 -11 0 -14 -3 -6 -6z"/>
<path d="M2968 4023 c7 -3 16 -2 19 1 4 3 -2 6 -13 5 -11 0 -14 -3 -6 -6z"/>
<path d="M1830 4010 c-8 -5 -10 -10 -5 -10 6 0 17 5 25 10 8 5 11 10 5 10 -5
0 -17 -5 -25 -10z"/>
<path d="M4238 4013 c7 -3 16 -2 19 1 4 3 -2 6 -13 5 -11 0 -14 -3 -6 -6z"/>
<path d="M4200 3999 c0 -5 5 -7 10 -4 6 3 10 8 10 11 0 2 -4 4 -10 4 -5 0 -10
-5 -10 -11z"/>
<path d="M2685 3990 c-3 -5 -1 -10 4 -10 6 0 11 5 11 10 0 6 -2 10 -4 10 -3 0
-8 -4 -11 -10z"/>
<path d="M3960 3984 c0 -10 5 -26 10 -34 8 -11 9 -7 4 15 -8 37 -14 45 -14 19z"/>
<path d="M1635 3980 c-3 -5 1 -10 9 -10 9 0 16 5 16 10 0 6 -4 10 -9 10 -6 0
-13 -4 -16 -10z"/>
<path d="M3628 3983 c6 -2 18 -2 25 0 6 3 1 5 -13 5 -14 0 -19 -2 -12 -5z"/>
<path d="M4645 3980 c-6 -9 -4 -11 5 -5 10 6 12 3 8 -13 -7 -24 8 -40 23 -25
6 6 3 18 -9 33 -14 18 -21 20 -27 10z"/>
<path d="M3708 3963 c7 -3 16 -2 19 1 4 3 -2 6 -13 5 -11 0 -14 -3 -6 -6z"/>
<path d="M3628 3953 c6 -2 18 -2 25 0 6 3 1 5 -13 5 -14 0 -19 -2 -12 -5z"/>
<path d="M2151 3924 c0 -11 3 -14 6 -6 3 7 2 16 -1 19 -3 4 -6 -2 -5 -13z"/>
<path d="M1725 3910 c-3 -5 -1 -10 4 -10 6 0 11 5 11 10 0 6 -2 10 -4 10 -3 0
-8 -4 -11 -10z"/>
<path d="M2440 3910 c-13 -8 -12 -10 3 -10 9 0 17 5 17 10 0 12 -1 12 -20 0z"/>
<path d="M2327 3896 c-4 -10 1 -12 14 -9 23 6 24 9 5 16 -8 3 -17 0 -19 -7z"/>
<path d="M4132 3860 c0 -19 2 -27 5 -17 2 9 2 25 0 35 -3 9 -5 1 -5 -18z"/>
<path d="M1706 3863 c-4 -9 -2 -21 4 -27 7 -7 10 -2 10 17 0 31 -5 34 -14 10z"/>
<path d="M2112 3850 c0 -19 2 -27 5 -17 2 9 2 25 0 35 -3 9 -5 1 -5 -18z"/>
<path d="M2368 3873 c7 -3 16 -2 19 1 4 3 -2 6 -13 5 -11 0 -14 -3 -6 -6z"/>
<path d="M4090 3870 c0 -5 5 -10 11 -10 5 0 7 5 4 10 -3 6 -8 10 -11 10 -2 0
-4 -4 -4 -10z"/>
<path d="M4541 3864 c0 -11 3 -14 6 -6 3 7 2 16 -1 19 -3 4 -6 -2 -5 -13z"/>
<path d="M2142 3840 c0 -19 2 -27 5 -17 2 9 2 25 0 35 -3 9 -5 1 -5 -18z"/>
<path d="M1562 3835 c0 -16 2 -22 5 -12 2 9 2 23 0 30 -3 6 -5 -1 -5 -18z"/>
<path d="M4721 3804 c0 -11 3 -14 6 -6 3 7 2 16 -1 19 -3 4 -6 -2 -5 -13z"/>
<path d="M4111 3794 c0 -11 3 -14 6 -6 3 7 2 16 -1 19 -3 4 -6 -2 -5 -13z"/>
<path d="M1587 3769 c4 -13 8 -18 11 -10 2 7 -1 18 -6 23 -8 8 -9 4 -5 -13z"/>
<path d="M1700 3761 c0 -6 5 -13 10 -16 6 -3 10 1 10 9 0 9 -4 16 -10 16 -5 0
-10 -4 -10 -9z"/>
<path d="M1726 3717 c3 -10 9 -15 12 -12 3 3 0 11 -7 18 -10 9 -11 8 -5 -6z"/>
<path d="M2100 3726 c0 -2 7 -9 15 -16 13 -11 14 -10 9 4 -5 14 -24 23 -24 12z"/>
<path d="M4190 3710 c0 -5 5 -10 11 -10 5 0 7 5 4 10 -3 6 -8 10 -11 10 -2 0
-4 -4 -4 -10z"/>
<path d="M2042 3690 c-7 -11 -9 -20 -4 -20 4 0 13 9 20 20 7 11 9 20 4 20 -4
0 -13 -9 -20 -20z"/>
<path d="M1542 3680 c0 -14 2 -19 5 -12 2 6 2 18 0 25 -3 6 -5 1 -5 -13z"/>
<path d="M4200 3680 c0 -5 7 -10 16 -10 8 0 12 5 9 10 -3 6 -10 10 -16 10 -5
0 -9 -4 -9 -10z"/>
<path d="M4495 3680 c-3 -5 -2 -10 4 -10 5 0 13 5 16 10 3 6 2 10 -4 10 -5 0
-13 -4 -16 -10z"/>
<path d="M1581 3648 c0 -9 -4 -25 -7 -35 -5 -17 -5 -17 6 0 6 10 9 25 7 35 -4
15 -5 15 -6 0z"/>
<path d="M4248 3653 c6 -2 18 -2 25 0 6 3 1 5 -13 5 -14 0 -19 -2 -12 -5z"/>
<path d="M4520 3649 c0 -5 5 -7 10 -4 6 3 10 8 10 11 0 2 -4 4 -10 4 -5 0 -10
-5 -10 -11z"/>
<path d="M1942 3640 c-18 -4 -36 -11 -39 -14 -10 -10 61 5 72 15 5 5 7 9 5 8
-3 -1 -20 -5 -38 -9z"/>
<path d="M1546 3632 c-2 -4 -1 -14 5 -22 7 -12 9 -10 9 8 0 23 -5 28 -14 14z"/>
<path d="M1828 3633 c6 -2 18 -2 25 0 6 3 1 5 -13 5 -14 0 -19 -2 -12 -5z"/>
<path d="M4390 3630 c-13 -8 -12 -10 3 -10 9 0 17 5 17 10 0 12 -1 12 -20 0z"/>
<path d="M1586 3527 c3 -10 9 -15 12 -12 3 3 0 11 -7 18 -10 9 -11 8 -5 -6z"/>
<path d="M1748 3433 c7 -3 16 -2 19 1 4 3 -2 6 -13 5 -11 0 -14 -3 -6 -6z"/>
<path d="M1785 3430 c-3 -5 -2 -10 4 -10 5 0 13 5 16 10 3 6 2 10 -4 10 -5 0
-13 -4 -16 -10z"/>
<path d="M1710 3420 c8 -5 20 -10 25 -10 6 0 3 5 -5 10 -8 5 -19 10 -25 10 -5
0 -3 -5 5 -10z"/>
<path d="M1830 3420 c0 -5 5 -10 11 -10 5 0 7 5 4 10 -3 6 -8 10 -11 10 -2 0
-4 -4 -4 -10z"/>
<path d="M4405 3410 c-3 -5 -1 -10 4 -10 6 0 11 5 11 10 0 6 -2 10 -4 10 -3 0
-8 -4 -11 -10z"/>
<path d="M1870 3370 c0 -11 2 -20 4 -20 2 0 6 9 9 20 3 11 1 20 -4 20 -5 0 -9
-9 -9 -20z"/>
<path d="M4401 3324 c0 -11 3 -14 6 -6 3 7 2 16 -1 19 -3 4 -6 -2 -5 -13z"/>
<path d="M3535 3290 c-3 -5 -1 -10 4 -10 6 0 11 5 11 10 0 6 -2 10 -4 10 -3 0
-8 -4 -11 -10z"/>
<path d="M2598 3283 c7 -3 16 -2 19 1 4 3 -2 6 -13 5 -11 0 -14 -3 -6 -6z"/>
<path d="M3128 3283 c6 -2 18 -2 25 0 6 3 1 5 -13 5 -14 0 -19 -2 -12 -5z"/>
<path d="M2655 3270 c-3 -5 -1 -10 4 -10 6 0 11 5 11 10 0 6 -2 10 -4 10 -3 0
-8 -4 -11 -10z"/>
<path d="M4417 3258 c-9 -31 -2 -33 11 -3 6 14 8 25 3 25 -5 0 -11 -10 -14
-22z"/>
<path d="M3628 3263 c6 -2 18 -2 25 0 6 3 1 5 -13 5 -14 0 -19 -2 -12 -5z"/>
<path d="M2605 3242 c-11 -2 -28 -11 -37 -20 -10 -8 -18 -11 -19 -6 -1 19 -28
-62 -28 -89 -2 -66 67 -126 130 -113 31 6 41 -9 12 -17 -15 -4 -15 -5 -2 -6 9
0 22 6 29 14 7 8 9 15 6 15 -4 0 4 11 18 25 14 14 29 37 32 50 8 34 -3 90 -21
105 -8 7 -12 17 -8 24 3 6 3 8 -2 4 -4 -4 -13 -4 -19 1 -15 11 -66 19 -91 13z
m83 -44 c18 -18 15 -36 -7 -48 -15 -7 -23 -6 -35 6 -12 12 -13 20 -6 35 12 22
30 25 48 7z"/>
<path d="M3098 3243 c7 -3 16 -2 19 1 4 3 -2 6 -13 5 -11 0 -14 -3 -6 -6z"/>
<path d="M3570 3226 c-6 -8 -17 -14 -23 -12 -7 1 -9 1 -5 -1 3 -2 0 -20 -8
-39 -18 -44 -10 -92 22 -129 20 -24 33 -29 72 -29 26 -1 56 3 67 8 11 6 29 10
39 10 11 1 21 8 24 16 5 13 3 13 -11 1 -19 -15 -22 -9 -8 17 13 25 20 122 9
122 -6 0 -19 11 -30 25 -17 22 -27 25 -78 25 -38 0 -62 -5 -70 -14z m118 -25
c23 -14 10 -46 -18 -46 -16 0 -26 6 -28 19 -3 16 12 36 28 36 3 0 11 -4 18 -9z"/>
<path d="M3730 3221 c0 -6 5 -13 10 -16 6 -3 10 1 10 9 0 9 -4 16 -10 16 -5 0
-10 -4 -10 -9z"/>
<path d="M2496 3204 c-4 -10 -1 -22 5 -28 9 -8 10 -8 5 2 -11 18 4 38 16 21 8
-12 9 -11 6 0 -6 22 -25 24 -32 5z"/>
<path d="M2741 3220 c-1 -3 6 -25 13 -50 11 -32 15 -38 15 -20 0 20 -28 89
-28 70z"/>
<path d="M2950 3210 c-8 -5 -10 -10 -5 -10 6 0 17 5 25 10 8 5 11 10 5 10 -5
0 -17 -5 -25 -10z"/>
<path d="M3300 3210 c14 -4 34 -8 45 -8 l20 -1 -20 9 c-11 5 -31 8 -45 8 l-25
0 25 -8z"/>
<path d="M3385 3180 c3 -5 8 -10 11 -10 2 0 4 5 4 10 0 6 -5 10 -11 10 -5 0
-7 -4 -4 -10z"/>
<path d="M3422 3156 c7 -8 15 -12 17 -11 5 6 -10 25 -20 25 -5 0 -4 -6 3 -14z"/>
<path d="M2490 3155 c0 -5 5 -17 10 -25 5 -8 10 -10 10 -5 0 6 -5 17 -10 25
-5 8 -10 11 -10 5z"/>
<path d="M2781 3124 c0 -11 3 -14 6 -6 3 7 2 16 -1 19 -3 4 -6 -2 -5 -13z"/>
<path d="M2506 3077 c3 -10 9 -15 12 -12 3 3 0 11 -7 18 -10 9 -11 8 -5 -6z"/>
<path d="M2981 3069 c-64 -12 -134 -50 -150 -80 -46 -84 95 -232 241 -254 46
-7 47 -8 42 -39 -12 -64 -26 -96 -54 -116 -37 -26 -104 -26 -172 0 -68 26 -67
26 -32 -11 69 -73 182 -96 244 -50 l31 22 51 -25 c61 -30 68 -31 134 -11 47
15 134 78 123 89 -3 3 -29 -3 -57 -14 -124 -47 -206 -11 -219 99 l-5 48 43 7
c64 10 122 39 175 88 118 108 91 207 -65 242 -76 17 -255 20 -330 5z"/>
<path d="M4455 3046 c11 -8 24 -12 29 -8 5 3 1 9 -10 13 -31 12 -39 10 -19 -5z"/>
<path d="M4401 3034 c0 -11 3 -14 6 -6 3 7 2 16 -1 19 -3 4 -6 -2 -5 -13z"/>
<path d="M3708 3013 c7 -3 16 -2 19 1 4 3 -2 6 -13 5 -11 0 -14 -3 -6 -6z"/>
<path d="M3580 3000 c0 -4 8 -14 17 -21 9 -8 14 -9 10 -2 -4 6 -2 13 5 15 7 3
2 7 -10 10 -12 4 -22 3 -22 -2z"/>
<path d="M3670 3000 c-13 -8 -12 -10 3 -10 9 0 17 5 17 10 0 12 -1 12 -20 0z"/>
<path d="M2495 2990 c3 -5 8 -10 11 -10 2 0 4 5 4 10 0 6 -5 10 -11 10 -5 0
-7 -4 -4 -10z"/>
<path d="M2580 2996 c0 -2 9 -6 20 -9 11 -3 18 -1 14 4 -5 9 -34 13 -34 5z"/>
<path d="M3621 2944 c0 -11 3 -14 6 -6 3 7 2 16 -1 19 -3 4 -6 -2 -5 -13z"/>
<path d="M4318 2953 c6 -2 18 -2 25 0 6 3 1 5 -13 5 -14 0 -19 -2 -12 -5z"/>
<path d="M1741 2940 c0 -8 4 -22 9 -30 12 -18 12 -2 0 25 -6 13 -9 15 -9 5z"/>
<path d="M4245 2919 c-11 -17 1 -21 15 -4 8 9 8 15 2 15 -6 0 -14 -5 -17 -11z"/>
<path d="M3635 2899 c-4 -5 -4 -13 -1 -16 3 -4 7 0 7 8 1 8 5 1 9 -16 l8 -30
1 27 c1 29 -13 45 -24 27z"/>
<path d="M2621 2884 c0 -11 3 -14 6 -6 3 7 2 16 -1 19 -3 4 -6 -2 -5 -13z"/>
<path d="M4206 2868 l-18 -33 21 25 c18 22 26 40 18 40 -1 0 -11 -15 -21 -32z"/>
<path d="M1732 2853 c-2 -34 12 -51 24 -32 4 7 3 9 -4 5 -7 -4 -12 6 -15 26
l-4 33 -1 -32z"/>
<path d="M2612 2795 c0 -16 2 -22 5 -12 2 9 2 23 0 30 -3 6 -5 -1 -5 -18z"/>
<path d="M3651 2804 c0 -11 3 -14 6 -6 3 7 2 16 -1 19 -3 4 -6 -2 -5 -13z"/>
<path d="M2581 2774 c0 -11 3 -14 6 -6 3 7 2 16 -1 19 -3 4 -6 -2 -5 -13z"/>
<path d="M1855 2730 c-3 -5 -1 -10 4 -10 6 0 11 5 11 10 0 6 -2 10 -4 10 -3 0
-8 -4 -11 -10z"/>
<path d="M2612 2720 c0 -14 2 -19 5 -12 2 6 2 18 0 25 -3 6 -5 1 -5 -13z"/>
<path d="M3651 2680 c0 -8 4 -22 9 -30 12 -18 12 -2 0 25 -6 13 -9 15 -9 5z"/>
<path d="M1963 2640 c2 -8 10 -15 17 -15 7 0 15 7 17 15 4 13 3 13 -6 0 -10
-13 -12 -13 -22 0 -9 13 -10 13 -6 0z"/>
<path d="M3636 2617 c3 -10 9 -15 12 -12 3 3 0 11 -7 18 -10 9 -11 8 -5 -6z"/>
<path d="M4161 2574 c0 -11 3 -14 6 -6 3 7 2 16 -1 19 -3 4 -6 -2 -5 -13z"/>
<path d="M2025 2570 c3 -5 8 -10 11 -10 2 0 4 5 4 10 0 6 -5 10 -11 10 -5 0
-7 -4 -4 -10z"/>
<path d="M2666 2547 c3 -10 9 -15 12 -12 3 3 0 11 -7 18 -10 9 -11 8 -5 -6z"/>
<path d="M3582 2525 c-17 -37 -14 -45 4 -12 9 16 14 31 11 33 -2 2 -9 -7 -15
-21z"/>
<path d="M4170 2516 c0 -8 4 -17 9 -20 5 -4 7 3 4 14 -6 23 -13 26 -13 6z"/>
<path d="M2071 2464 c0 -11 3 -14 6 -6 3 7 2 16 -1 19 -3 4 -6 -2 -5 -13z"/>
<path d="M3545 2470 c-3 -5 -1 -10 4 -10 6 0 11 5 11 10 0 6 -2 10 -4 10 -3 0
-8 -4 -11 -10z"/>
<path d="M4171 2413 c0 -12 2 -14 6 -4 5 11 7 11 15 0 8 -12 9 -12 6 0 -6 22
-28 25 -27 4z"/>
<path d="M2743 2393 c15 -2 37 -2 50 0 12 2 0 4 -28 4 -27 0 -38 -2 -22 -4z"/>
<path d="M3468 2393 c7 -3 16 -2 19 1 4 3 -2 6 -13 5 -11 0 -14 -3 -6 -6z"/>
<path d="M4165 2380 c-4 -6 3 -10 14 -10 25 0 27 6 6 13 -8 4 -17 2 -20 -3z"/>
<path d="M3420 2376 c0 -2 7 -7 16 -10 8 -3 12 -2 9 4 -6 10 -25 14 -25 6z"/>
<path d="M4588 2943 c6 -2 18 -2 25 0 6 3 1 5 -13 5 -14 0 -19 -2 -12 -5z"/>
<path d="M4535 2930 c-3 -5 -1 -10 4 -10 6 0 11 5 11 10 0 6 -2 10 -4 10 -3 0
-8 -4 -11 -10z"/>
<path d="M4675 2920 c4 -6 11 -8 16 -5 14 9 11 15 -7 15 -8 0 -12 -5 -9 -10z"/>
<path d="M4712 2912 c-8 -6 -2 -9 18 -9 20 0 26 3 18 9 -7 4 -15 8 -18 8 -3 0
-11 -4 -18 -8z"/>
<path d="M4795 2900 c4 -6 11 -8 16 -5 14 9 11 15 -7 15 -8 0 -12 -5 -9 -10z"/>
<path d="M4843 2883 c9 -2 23 -2 30 0 6 3 -1 5 -18 5 -16 0 -22 -2 -12 -5z"/>
<path d="M4930 2870 c0 -5 5 -10 10 -10 6 0 10 5 10 10 0 6 -4 10 -10 10 -5 0
-10 -4 -10 -10z"/>
<path d="M4665 2861 c-3 -5 -1 -12 5 -16 5 -3 10 1 10 9 0 18 -6 21 -15 7z"/>
<path d="M4990 2850 c0 -5 5 -10 11 -10 5 0 7 5 4 10 -3 6 -8 10 -11 10 -2 0
-4 -4 -4 -10z"/>
<path d="M4435 2840 c-3 -5 -2 -10 4 -10 5 0 13 5 16 10 3 6 2 10 -4 10 -5 0
-13 -4 -16 -10z"/>
<path d="M4526 2841 c-4 -7 -5 -15 -2 -18 9 -9 19 4 14 18 -4 11 -6 11 -12 0z"/>
<path d="M4354 2831 c5 -8 56 -3 56 5 0 2 -14 4 -31 4 -16 0 -28 -4 -25 -9z"/>
<path d="M4675 2819 c-4 -6 -5 -12 -2 -15 2 -3 7 2 10 11 7 17 1 20 -8 4z"/>
<path d="M4701 2804 c0 -11 3 -14 6 -6 3 7 2 16 -1 19 -3 4 -6 -2 -5 -13z"/>
<path d="M4770 2766 c0 -8 5 -18 10 -21 6 -3 10 1 10 9 0 8 -4 18 -10 21 -5 3
-10 -1 -10 -9z"/>
<path d="M4716 2757 c3 -10 9 -15 12 -12 3 3 0 11 -7 18 -10 9 -11 8 -5 -6z"/>
<path d="M4957 2739 c7 -7 15 -10 18 -7 3 3 -2 9 -12 12 -14 6 -15 5 -6 -5z"/>
<path d="M5132 2713 c5 -20 7 -60 4 -88 -4 -40 -3 -45 5 -25 14 33 8 150 -8
150 -8 0 -9 -10 -1 -37z"/>
<path d="M4291 2724 c0 -11 3 -14 6 -6 3 7 2 16 -1 19 -3 4 -6 -2 -5 -13z"/>
<path d="M4348 2733 c7 -3 16 -2 19 1 4 3 -2 6 -13 5 -11 0 -14 -3 -6 -6z"/>
<path d="M4428 2733 c7 -3 16 -2 19 1 4 3 -2 6 -13 5 -11 0 -14 -3 -6 -6z"/>
<path d="M5010 2729 c0 -5 5 -7 10 -4 6 3 10 8 10 11 0 2 -4 4 -10 4 -5 0 -10
-5 -10 -11z"/>
<path d="M4450 2711 c0 -6 5 -13 10 -16 6 -3 10 1 10 9 0 9 -4 16 -10 16 -5 0
-10 -4 -10 -9z"/>
<path d="M4603 2713 c9 -2 23 -2 30 0 6 3 -1 5 -18 5 -16 0 -22 -2 -12 -5z"/>
<path d="M4833 2713 c9 -2 25 -2 35 0 9 3 1 5 -18 5 -19 0 -27 -2 -17 -5z"/>
<path d="M4993 2665 c0 -27 2 -38 4 -22 2 15 2 37 0 50 -2 12 -4 0 -4 -28z"/>
<path d="M4300 2671 c0 -6 4 -13 10 -16 6 -3 7 1 4 9 -7 18 -14 21 -14 7z"/>
<path d="M4281 2644 c0 -11 3 -14 6 -6 3 7 2 16 -1 19 -3 4 -6 -2 -5 -13z"/>
<path d="M4743 2623 c15 -2 37 -2 50 0 12 2 0 4 -28 4 -27 0 -38 -2 -22 -4z"/>
<path d="M5191 2614 c0 -11 3 -14 6 -6 3 7 2 16 -1 19 -3 4 -6 -2 -5 -13z"/>
<path d="M5213 2580 c0 -25 2 -35 4 -22 2 12 2 32 0 45 -2 12 -4 2 -4 -23z"/>
<path d="M4440 2595 c-11 -13 -10 -14 4 -9 9 3 16 10 16 15 0 13 -6 11 -20 -6z"/>
<path d="M4600 2600 c0 -5 4 -10 9 -10 6 0 13 5 16 10 3 6 -1 10 -9 10 -9 0
-16 -4 -16 -10z"/>
<path d="M5010 2590 c0 -5 5 -10 11 -10 5 0 7 5 4 10 -3 6 -8 10 -11 10 -2 0
-4 -4 -4 -10z"/>
<path d="M5032 2440 c0 -14 2 -19 5 -12 2 6 2 18 0 25 -3 6 -5 1 -5 -13z"/>
<path d="M5196 2403 c-6 -14 -5 -15 5 -6 7 7 10 15 7 18 -3 3 -9 -2 -12 -12z"/>
<path d="M5143 2393 c9 -2 23 -2 30 0 6 3 -1 5 -18 5 -16 0 -22 -2 -12 -5z"/>
<path d="M1528 2693 c7 -3 16 -2 19 1 4 3 -2 6 -13 5 -11 0 -14 -3 -6 -6z"/>
<path d="M1288 2683 c7 -3 16 -2 19 1 4 3 -2 6 -13 5 -11 0 -14 -3 -6 -6z"/>
<path d="M1660 2676 c0 -2 7 -7 16 -10 8 -3 12 -2 9 4 -6 10 -25 14 -25 6z"/>
<path d="M1308 2663 c7 -3 16 -2 19 1 4 3 -2 6 -13 5 -11 0 -14 -3 -6 -6z"/>
<path d="M1160 2609 c0 -5 5 -7 10 -4 6 3 10 8 10 11 0 2 -4 4 -10 4 -5 0 -10
-5 -10 -11z"/>
<path d="M1103 2533 c-3 -10 -8 -22 -10 -28 -3 -5 3 -1 11 9 16 20 21 36 11
36 -3 0 -8 -8 -12 -17z"/>
<path d="M1102 2460 c0 -14 2 -19 5 -12 2 6 2 18 0 25 -3 6 -5 1 -5 -13z"/>
<path d="M1921 2380 c0 -8 4 -22 9 -30 12 -18 12 -2 0 25 -6 13 -9 15 -9 5z"/>
<path d="M1950 2381 c0 -6 5 -13 10 -16 6 -3 10 1 10 9 0 9 -4 16 -10 16 -5 0
-10 -4 -10 -9z"/>
<path d="M1111 2244 c0 -11 3 -14 6 -6 3 7 2 16 -1 19 -3 4 -6 -2 -5 -13z"/>
<path d="M1932 2205 c0 -16 2 -22 5 -12 2 9 2 23 0 30 -3 6 -5 -1 -5 -18z"/>
<path d="M1967 2223 c-4 -3 -7 -16 -6 -27 0 -19 1 -19 10 3 10 24 8 36 -4 24z"/>
<path d="M1098 2192 c-5 -17 -1 -23 17 -28 13 -3 34 -4 46 -1 17 3 12 5 -13 6
-30 1 -37 5 -40 24 l-3 22 -7 -23z"/>
<path d="M1770 2155 c-7 -9 -11 -18 -8 -20 3 -3 11 1 18 10 7 9 11 18 8 20 -3
3 -11 -1 -18 -10z"/>
<path d="M1898 2163 c7 -3 16 -2 19 1 4 3 -2 6 -13 5 -11 0 -14 -3 -6 -6z"/>
<path d="M1235 2150 c-3 -5 -2 -10 4 -10 5 0 13 5 16 10 3 6 2 10 -4 10 -5 0
-13 -4 -16 -10z"/>
<path d="M1810 2149 c0 -5 5 -7 10 -4 6 3 10 8 10 11 0 2 -4 4 -10 4 -5 0 -10
-5 -10 -11z"/>
<path d="M1848 2153 c7 -3 16 -2 19 1 4 3 -2 6 -13 5 -11 0 -14 -3 -6 -6z"/>
<path d="M1173 2143 c9 -2 23 -2 30 0 6 3 -1 5 -18 5 -16 0 -22 -2 -12 -5z"/>
<path d="M1785 2120 c-3 -5 -1 -10 4 -10 6 0 11 5 11 10 0 6 -2 10 -4 10 -3 0
-8 -4 -11 -10z"/>
<path d="M1330 2093 c0 -16 25 -23 41 -11 11 8 11 9 -2 5 -9 -3 -22 0 -28 6
-8 8 -11 8 -11 0z"/>
<path d="M1755 2090 c-19 -8 -19 -9 3 -9 12 -1 22 4 22 9 0 6 -1 10 -2 9 -2 0
-12 -4 -23 -9z"/>
<path d="M1430 2080 c-8 -5 -10 -10 -5 -10 6 0 17 5 25 10 8 5 11 10 5 10 -5
0 -17 -5 -25 -10z"/>
<path d="M1558 2083 c7 -3 16 -2 19 1 4 3 -2 6 -13 5 -11 0 -14 -3 -6 -6z"/>
<path d="M1596 2063 c-6 -14 -5 -15 5 -6 7 7 10 15 7 18 -3 3 -9 -2 -12 -12z"/>
</g>
</svg>
